name C:/MyDriveSym/Projects/mobilecap/Data\Session20210813_0002\mocap\ForceDataProcessed\walking1_forces.mot
datacolumns 19
datarows 19
range 0.00000000 0.00900000
endheader 
time	R_ground_force_vx	R_ground_force_vy	R_ground_force_vz	R_ground_force_px	R_ground_force_py	R_ground_force_pz	R_ground_torque_x	R_ground_torque_y	R_ground_torque_z	L_ground_force_vx	L_ground_force_vy	L_ground_force_vz	L_ground_force_px	L_ground_force_py	L_ground_force_pz	L_ground_torque_x	L_ground_torque_y	L_ground_torque_z	
          0.00000000	       -130.15365400	        640.99916800	         -3.39552500	          0.16536100	          0.00600000	         -0.17811400	          0.00000000	         -0.69024600	          0.00000000	          0.00000000	          0.00000000	          0.00000000	          0.75098400	          0.00000000	         -0.19684000	          0.00000000	          0.00000000	          0.00000000	
          0.00050000	       -130.27279300	        641.75059500	         -3.55655100	          0.16536100	          0.00600000	         -0.17811400	          0.00000000	         -0.68669600	          0.00000000	          0.00000000	          0.00000000	          0.00000000	          0.75098400	          0.00000000	         -0.19684000	          0.00000000	          0.00000000	          0.00000000	
          0.00100000	       -130.39186200	        642.50631200	         -3.71802700	          0.16536100	          0.00600000	         -0.17811400	          0.00000000	         -0.68306700	          0.00000000	          0.00000000	          0.00000000	          0.00000000	          0.75098400	          0.00000000	         -0.19684000	          0.00000000	          0.00000000	          0.00000000	
          0.00150000	       -130.51084200	        643.26627600	         -3.87993500	          0.16536100	          0.00600000	         -0.17811400	          0.00000000	         -0.67935800	          0.00000000	          0.00000000	          0.00000000	          0.00000000	          0.75098400	          0.00000000	         -0.19684000	          0.00000000	          0.00000000	          0.00000000	
          0.00200000	       -130.62971200	        644.03044500	         -4.04225900	          0.16556400	          0.00600000	         -0.17803400	          0.00000000	         -0.67556800	          0.00000000	          0.00000000	          0.00000000	          0.00000000	          0.75098400	          0.00000000	         -0.19684000	          0.00000000	          0.00000000	          0.00000000	
          0.00250000	       -130.74845200	        644.79877300	         -4.20498100	          0.16576800	          0.00600000	         -0.17795300	          0.00000000	         -0.67169600	          0.00000000	          0.00000000	          0.00000000	          0.00000000	          0.75098400	          0.00000000	         -0.19684000	          0.00000000	          0.00000000	          0.00000000	
          0.00300000	       -130.86704100	        645.57121200	         -4.36808400	          0.16597200	          0.00600000	         -0.17787200	          0.00000000	         -0.66774300	          0.00000000	          0.00000000	          0.00000000	          0.00000000	          0.75098400	          0.00000000	         -0.19684000	          0.00000000	          0.00000000	          0.00000000	
          0.00350000	       -130.98545800	        646.34771700	         -4.53154900	          0.16617800	          0.00600000	         -0.17779100	          0.00000000	         -0.66370800	          0.00000000	          0.00000000	          0.00000000	          0.00000000	          0.75098400	          0.00000000	         -0.19684000	          0.00000000	          0.00000000	          0.00000000	
          0.00400000	       -131.10368100	        647.12823700	         -4.69535900	          0.16638400	          0.00600000	         -0.17770900	          0.00000000	         -0.65959000	          0.00000000	          0.00000000	          0.00000000	          0.00000000	          0.75098400	          0.00000000	         -0.19684000	          0.00000000	          0.00000000	          0.00000000	
          0.00450000	       -131.22169100	        647.91272400	         -4.85949700	          0.16659100	          0.00600000	         -0.17762700	          0.00000000	         -0.65539000	          0.00000000	          0.00000000	          0.00000000	          0.00000000	          0.75098400	          0.00000000	         -0.19684000	          0.00000000	          0.00000000	          0.00000000	
          0.00500000	       -131.33946400	        648.70112500	         -5.02394400	          0.16679900	          0.00600000	         -0.17754500	          0.00000000	         -0.65110600	          0.00000000	          0.00000000	          0.00000000	          0.00000000	          0.75098400	          0.00000000	         -0.19684000	          0.00000000	          0.00000000	          0.00000000	
          0.00550000	       -131.45697900	        649.49338900	         -5.18868100	          0.16700800	          0.00600000	         -0.17746300	          0.00000000	         -0.64673800	          0.00000000	          0.00000000	          0.00000000	          0.00000000	          0.75098400	          0.00000000	         -0.19684000	          0.00000000	          0.00000000	          0.00000000	
          0.00600000	       -131.57421400	        650.28946200	         -5.35369200	          0.16721800	          0.00600000	         -0.17738000	          0.00000000	         -0.64228700	          0.00000000	          0.00000000	          0.00000000	          0.00000000	          0.75098400	          0.00000000	         -0.19684000	          0.00000000	          0.00000000	          0.00000000	
          0.00650000	       -131.69114600	        651.08928900	         -5.51895600	          0.16742900	          0.00600000	         -0.17729600	          0.00000000	         -0.63775100	          0.00000000	          0.00000000	          0.00000000	          0.00000000	          0.75098400	          0.00000000	         -0.19684000	          0.00000000	          0.00000000	          0.00000000	
          0.00700000	       -131.80775300	        651.89281500	         -5.68445800	          0.16764100	          0.00600000	         -0.17721300	          0.00000000	         -0.63313100	          0.00000000	          0.00000000	          0.00000000	          0.00000000	          0.75098400	          0.00000000	         -0.19684000	          0.00000000	          0.00000000	          0.00000000	
          0.00750000	       -131.92401300	        652.69998100	         -5.85017700	          0.16785300	          0.00600000	         -0.17712900	          0.00000000	         -0.62842600	          0.00000000	          0.00000000	          0.00000000	          0.00000000	          0.75098400	          0.00000000	         -0.19684000	          0.00000000	          0.00000000	          0.00000000	
          0.00800000	       -132.03990200	        653.51073100	         -6.01609600	          0.16806600	          0.00600000	         -0.17704500	          0.00000000	         -0.62363700	          0.00000000	          0.00000000	          0.00000000	          0.00000000	          0.75098400	          0.00000000	         -0.19684000	          0.00000000	          0.00000000	          0.00000000	
          0.00850000	       -132.15539800	        654.32500400	         -6.18219600	          0.16828000	          0.00600000	         -0.17696100	          0.00000000	         -0.61876400	          0.00000000	          0.00000000	          0.00000000	          0.00000000	          0.75098400	          0.00000000	         -0.19684000	          0.00000000	          0.00000000	          0.00000000	
          0.00900000	       -132.27047700	        655.14274000	         -6.34845900	          0.16849500	          0.00600000	         -0.17687600	          0.00000000	         -0.61380500	          0.00000000	          0.00000000	          0.00000000	          0.00000000	          0.75098400	          0.00000000	         -0.19684000	          0.00000000	          0.00000000	          0.00000000	
